<svg xmlns="http://www.w3.org/2000/svg" style="display: none;">
    <symbol id='red-arrow' width="27" height="27" viewBox="0 0 27 27">
        <path d="M19.4794 6.35919L19.4794 19.4793H6.35922L6.34666 16.2527H13.8923L5.37991 7.74026L7.74028 5.37989L16.2527 13.8923L16.2464 6.35292L19.4794 6.35919Z" fill="#FF6E1B"/>
    </symbol>
    <symbol id='burger'>
        <path d="M12 0H0V1.5H12V0ZM12 3.75H0V5.25H12V3.75ZM12 7.5H0V9H12V7.5Z" fill="black"/>
    </symbol>
    <symbol id='white-arrow'>
        <path d="M5.01037 4.9934V1.05184L5.64939 1.09142L0.735155 6.01131L0 5.27615L4.91423 0.361923L4.96513 1.00094H1.0066V0L6 0.0113101V4.9934H5.01037Z" fill="white"/>
    </symbol>
    <symbol id='line'>
        <path d="M0 0C0 0.333333 0 0.666667 0 1C5.38333 0.991667 10.7667 0.983333 16.15 0.975C113.05 0.825 209.95 0.675 306.85 0.525C312.233 0.516667 317.617 0.508333 323 0.5C317.617 0.491667 312.233 0.483333 306.85 0.475C209.95 0.325 113.05 0.175 16.15 0.025C10.7667 0.0166667 5.38333 0.00833333 0 0Z" fill="black"/>
    </symbol>
</svg>